Coordinates
version=1
nRows=4
nColumns=40
inDegrees=yes

Units are S.I. units (second, meters, Newtons, ...)
If the header above contains a line with 'inDegrees', this indicates whether rotational values are in degrees (yes) or radians (no).

endheader
time	pelvis_tilt	pelvis_list	pelvis_rotation	pelvis_tx	pelvis_ty	pelvis_tz	hip_flexion_r	hip_adduction_r	hip_rotation_r	knee_angle_r	knee_angle_r_beta	ankle_angle_r	subtalar_angle_r	mtp_angle_r	hip_flexion_l	hip_adduction_l	hip_rotation_l	knee_angle_l	knee_angle_l_beta	ankle_angle_l	subtalar_angle_l	mtp_angle_l	lumbar_extension	lumbar_bending	lumbar_rotation	arm_flex_r	arm_add_r	arm_rot_r	elbow_flex_r	pro_sup_r	wrist_flex_r	wrist_dev_r	arm_flex_l	arm_add_l	arm_rot_l	elbow_flex_l	pro_sup_l	wrist_flex_l	wrist_dev_l
      8.45500000000000007105	     -9.17610858713125487895	     -6.04138749851281797731	   -173.09857176568294789831	      0.20750162369296945575	      0.93779319809370986771	     -0.59591452488968155166	      1.97020482388738105151	    -19.04808357520423101050	    -29.67544978006306877205	     21.07527039599719032026	      0.36783285915824015522	      2.87382648135658103072	      0.00000000000000000000	      0.00000000000000000000	      1.97432396135388454894	     -2.63980968038036056811	    -18.76923919375963478728	     14.80883722539511282434	      0.25846296797504636489	      0.98492254327094075350	      0.00000000000000000000	      0.00000000000000000000	    -27.55522039418731594651	     -2.79102246826999200735	     -9.78521481408352933329	     17.45217694300200150792	     -3.94206833269334788739	     28.41494724373027480624	      4.43967702256542740002	     15.69808206684673912434	      0.00000000000000000000	      0.00000000000000000000	     23.94833999409281943826	    -11.16888384261695499333	     83.56527436191042568225	      7.40502006566289328049	     85.32935689192508732503	      0.00000000000000000000	      0.00000000000000000000
      8.46000000000000085265	     -9.27391491077329099824	     -6.05961872089536068842	   -173.02808904668182776732	      0.20745963078275320157	      0.93784438584012341789	     -0.59563715255656124459	      1.82413258124958654882	    -19.09118323268762651423	    -29.87742385780322251776	     21.10400547910236213056	      0.36833438096925957828	      2.87940170820362073556	      0.00000000000000000000	      0.00000000000000000000	      1.89798525621681801745	     -2.63949705680035684452	    -18.76471935648194033774	     14.87162149220726270471	      0.25955876014936896112	      1.02726025090859729438	      0.00000000000000000000	      0.00000000000000000000	    -27.31868829470934301185	     -2.77575259232233628737	     -9.91878155932250038518	     17.33234901913543524188	     -3.94544181863789811260	     28.28668554425113512707	      4.51515094574138231565	     15.44311941724765091521	      0.00000000000000000000	      0.00000000000000000000	     23.76880403814958953035	    -11.16362837097854310286	     83.48435935036377486540	      7.41351426507191657578	     85.19036143265428506766	      0.00000000000000000000	      0.00000000000000000000
      8.46499999999999985789	     -9.38112447875730381952	     -6.08054149300491797447	   -172.89160448847866291544	      0.20736048290654929271	      0.93793191391397889856	     -0.59523367289649309342	      1.62125031707632705213	    -19.15120933713020434652	    -30.21265984381718183727	     21.12991185465011056976	      0.36878653251982596029	      2.90348116337656181329	      0.00000000000000000000	      0.00000000000000000000	      1.81749013931480885020	     -2.62623997179371615474	    -18.66645835078773885130	     14.94183817817252268867	      0.26078427250930164005	      1.05608264576308918947	      0.00000000000000000000	      0.00000000000000000000	    -27.09977245501370290981	     -2.72713443561414514704	    -10.06523424132907962303	     17.28063291013333468982	     -3.90149838853802677363	     27.42629035766105261018	      4.44483011321782317538	     15.90495648053590826976	      0.00000000000000000000	      0.00000000000000000000	     23.59955501201024574698	    -11.12224212304071002677	     83.27582135249761563500	      7.38307775259768916953	     85.36796825682537814828	      0.00000000000000000000	      0.00000000000000000000
      8.47000000000000063949	     -9.44732632492407553571	     -6.07809603006057486141	   -172.87764283303343404441	      0.20731692689197117607	      0.93785824960808672479	     -0.59506751393465606714	      1.57673583031909880781	    -19.17595482674716222959	    -30.28035804834190258816	     21.20562850402770393998	      0.37010803735004305093	      2.92223452182337384286	      0.00000000000000000000	      0.00000000000000000000	      1.82165354449194683006	     -2.67472113385050835888	    -18.71253636063263670053	     15.11821878922501305453	      0.26386269490884711741	      1.17161284899910445034	      0.00000000000000000000	      0.00000000000000000000	    -26.82476096485104122280	     -2.72168279740525687060	    -10.12494789544403062109	     16.99991806856420950567	     -4.06737548397062909089	     28.32519634678130415750	      4.58076031827263996377	     16.27476223384424613982	      0.00000000000000000000	      0.00000000000000000000	     23.41043817730141185507	    -11.07726171105641910231	     83.30403955492481316014	      7.32933059584763224592	     85.19793981230857582432	      0.00000000000000000000	      0.00000000000000000000
